<svg xmlns="http://www.w3.org/2000/svg" xmlns:svg="http://www.w3.org/2000/svg" id="svg11300" width="24" height="24" version="1.0" style="display:inline;enable-background:new"><metadata id="metadata4"/><g style="display:inline" id="layer1" transform="translate(0,-276)"><path style="opacity:.3;fill:#fff;fill-opacity:1;stroke:none" id="rect3005" d="m 0,300 0,-22 c 0,-1.108 0.892,-2 2,-2 l 20,0 c 1.108,0 2,0.892 2,2 l 0,22 -1,0 0,-21 c 0,-1.108 -0.892,-2 -2,-2 l -18,0 c -1.108,0 -2,0.892 -2,2 l 0,21 z"/><path style="opacity:.85;fill:#000;fill-opacity:1;stroke:none" id="rect3003" d="m 1,300 0,-21 c 0,-1.108 0.892,-2 2,-2 l 18,0 c 1.108,0 2,0.892 2,2 l 0,21 z"/><rect style="opacity:.10000000000000001;fill:#fff;fill-opacity:1;stroke:none" id="rect3205" width="4" height="1" x="10" y="23" transform="translate(0,276)"/></g></svg>